<svg xmlns="http://www.w3.org/2000/svg" xmlns:xlink="http://www.w3.org/1999/xlink" width="1000" zoomAndPan="magnify" viewBox="0 0 750 749.999995" height="1000" preserveAspectRatio="xMidYMid meet" version="1.0"><defs><clipPath id="c251c6af1b"><path d="M 18.28125 634 L 182 634 L 182 750 L 18.28125 750 Z M 18.28125 634 " clip-rule="nonzero"/></clipPath><clipPath id="15ed1e82da"><path d="M 496 356 L 731.53125 356 L 731.53125 554 L 496 554 Z M 496 356 " clip-rule="nonzero"/></clipPath></defs><path stroke-linecap="butt" transform="matrix(0.625879, -0.41325, 0.41325, 0.625879, 171.261909, 637.232461)" fill="none" stroke-linejoin="miter" d="M 0.00148056 2.001228 L 295.230575 2.000662 " stroke="#000000" stroke-width="4" stroke-opacity="1" stroke-miterlimit="4"/><path fill="#1d1d1b" d="M 624.394531 114.847656 C 623.996094 153.371094 600.207031 178.332031 593.683594 184.558594 C 574.644531 202.71875 548.25 214.480469 518.820312 215.957031 C 518.179688 209.207031 517.921875 201.539062 518.421875 193.164062 C 519.152344 181.089844 521.265625 170.75 523.523438 162.617188 C 540.011719 166.65625 555.636719 158.9375 560.492188 146.449219 C 563.980469 137.464844 562.382812 124.820312 553.851562 118.316406 C 543.984375 110.804688 526.921875 113.128906 516.878906 126.292969 C 515.699219 118.660156 514.851562 109.640625 514.886719 99.496094 C 514.921875 89.347656 515.855469 80.328125 517.105469 72.710938 C 517.105469 72.710938 489.082031 67.769531 468.617188 62.511719 C 458.007812 59.808594 443.976562 55.609375 427.605469 48.949219 C 425.507812 47.195312 421.902344 43.605469 420.582031 38.160156 C 420.582031 38.160156 418.78125 30.699219 423.6875 21.769531 C 427.761719 14.34375 464.386719 -3.347656 516.671875 6.484375 C 537.878906 10.476562 571.191406 16.738281 597.03125 46.347656 C 604.367188 54.757812 624.777344 78.886719 624.414062 114.847656 Z M 624.394531 114.847656 " fill-opacity="1" fill-rule="nonzero"/><path fill="#1d1d1b" d="M 518.820312 219.40625 C 517.054688 219.40625 515.542969 218.054688 515.371094 216.265625 C 514.644531 208.53125 514.503906 200.691406 514.957031 192.9375 C 515.597656 182.390625 517.347656 171.863281 520.175781 161.679688 C 520.679688 159.875 522.515625 158.78125 524.335938 159.234375 C 538.382812 162.6875 552.847656 156.511719 557.25 145.183594 C 560.179688 137.636719 558.914062 126.539062 551.734375 121.074219 C 543.636719 114.898438 528.792969 116.371094 519.621094 128.394531 C 518.769531 129.503906 517.347656 129.988281 516.011719 129.660156 C 514.660156 129.3125 513.65625 128.203125 513.445312 126.832031 C 512.058594 117.898438 511.382812 108.6875 511.417969 99.496094 C 511.453125 91.480469 512.023438 83.433594 513.167969 75.539062 C 505.089844 74.046875 483.964844 70.058594 467.753906 65.894531 C 453.964844 62.375 440.023438 57.761719 426.289062 52.191406 C 425.960938 52.054688 425.648438 51.863281 425.371094 51.636719 C 421.171875 48.132812 418.347656 43.761719 417.203125 39.007812 C 417.113281 38.644531 415.136719 30.128906 420.636719 20.136719 C 425.871094 10.597656 465.082031 -6.695312 517.296875 3.121094 C 538.140625 7.042969 573.015625 13.597656 599.632812 44.109375 C 618.621094 65.878906 628.125 89.695312 627.863281 114.914062 C 627.464844 154.152344 603.429688 180.082031 596.078125 187.109375 C 575.738281 206.5 548.371094 217.984375 518.996094 219.460938 C 518.945312 219.460938 518.875 219.460938 518.820312 219.460938 Z M 526.035156 166.65625 C 523.816406 175.402344 522.429688 184.367188 521.890625 193.371094 C 521.511719 199.648438 521.542969 205.980469 521.996094 212.277344 C 548.421875 210.214844 572.925781 199.5625 591.292969 182.042969 C 598.160156 175.503906 620.5625 151.324219 620.929688 114.8125 L 624.394531 114.847656 L 620.929688 114.8125 C 621.171875 91.34375 612.238281 69.070312 594.414062 48.636719 C 569.371094 19.945312 537.273438 13.894531 516.03125 9.902344 C 464.855469 0.277344 429.828125 17.8125 426.722656 23.449219 C 422.578125 30.996094 423.949219 37.292969 423.949219 37.34375 C 424.902344 41.265625 427.382812 44.144531 429.425781 45.949219 C 442.695312 51.308594 456.148438 55.765625 469.46875 59.148438 C 489.566406 64.316406 517.417969 69.242188 517.695312 69.296875 C 519.566406 69.625 520.816406 71.394531 520.523438 73.269531 C 519.117188 81.890625 518.371094 90.71875 518.355469 99.496094 C 518.335938 105.894531 518.664062 112.296875 519.359375 118.609375 C 530.996094 108.636719 546.671875 108.480469 555.949219 115.539062 C 566.09375 123.277344 567.535156 137.882812 563.71875 147.699219 C 558.34375 161.523438 542.527344 169.277344 526.035156 166.660156 Z M 526.035156 166.65625 " fill-opacity="1" fill-rule="nonzero"/><path fill="#1d1d1b" d="M 512.527344 219.597656 C 472.121094 219.597656 434.613281 200.292969 413.769531 169 C 411.652344 169.9375 409.363281 170.421875 407.023438 170.421875 C 397.78125 170.421875 390.269531 162.910156 390.269531 153.667969 C 390.269531 149.242188 392.023438 145.132812 394.933594 142.097656 C 389.4375 139.339844 385.65625 133.648438 385.65625 127.09375 C 385.65625 119.71875 390.480469 113.320312 397.277344 111.152344 C 398.195312 87.40625 408.011719 64.558594 425.09375 46.574219 C 426.082031 45.53125 427.589844 45.203125 428.90625 45.738281 C 442.328125 51.203125 455.976562 55.714844 469.46875 59.148438 C 489.566406 64.316406 517.417969 69.242188 517.695312 69.296875 C 519.566406 69.625 520.816406 71.394531 520.523438 73.269531 C 519.117188 81.890625 518.371094 90.71875 518.355469 99.496094 C 518.335938 105.894531 518.667969 112.296875 519.359375 118.609375 C 530.996094 108.636719 546.671875 108.480469 555.949219 115.539062 C 566.09375 123.277344 567.535156 137.882812 563.71875 147.699219 C 558.34375 161.507812 542.527344 169.277344 526.035156 166.660156 C 523.816406 175.402344 522.429688 184.367188 521.890625 193.371094 C 521.441406 200.761719 521.578125 208.253906 522.273438 215.625 C 522.359375 216.5625 522.066406 217.5 521.457031 218.210938 C 520.851562 218.921875 519.964844 219.355469 519.03125 219.40625 C 516.964844 219.527344 514.832031 219.582031 512.527344 219.582031 Z M 414.914062 160.863281 C 415.136719 160.863281 415.347656 160.882812 415.570312 160.933594 C 416.527344 161.125 417.359375 161.699219 417.859375 162.511719 C 437.023438 193.441406 473.300781 212.640625 512.527344 212.640625 C 513.394531 212.640625 514.242188 212.640625 515.058594 212.609375 C 514.589844 206.066406 514.554688 199.460938 514.953125 192.9375 C 515.597656 182.390625 517.347656 171.863281 520.175781 161.679688 C 520.675781 159.875 522.515625 158.78125 524.335938 159.234375 C 538.382812 162.667969 552.847656 156.511719 557.25 145.183594 C 560.179688 137.621094 558.914062 126.539062 551.734375 121.054688 C 543.636719 114.878906 528.792969 116.355469 519.621094 128.375 C 518.769531 129.484375 517.347656 129.972656 516.011719 129.640625 C 514.660156 129.296875 513.65625 128.183594 513.445312 126.816406 C 512.058594 117.882812 511.382812 108.671875 511.417969 99.476562 C 511.453125 91.464844 512.023438 83.414062 513.167969 75.523438 C 505.085938 74.03125 483.964844 70.042969 467.75 65.878906 C 454.710938 62.546875 441.515625 58.246094 428.527344 53.058594 C 413.003906 70.199219 404.351562 91.742188 404.144531 113.960938 C 404.144531 115.695312 402.824219 117.152344 401.109375 117.359375 C 396.253906 117.984375 392.59375 122.164062 392.59375 127.09375 C 392.59375 132.503906 396.980469 136.910156 402.390625 136.910156 C 402.878906 136.910156 403.3125 136.875 403.691406 136.824219 C 405.234375 136.597656 406.761719 137.449219 407.386719 138.886719 C 407.507812 139.164062 407.59375 139.476562 407.679688 139.808594 C 407.90625 140.726562 407.75 141.699219 407.246094 142.496094 C 406.746094 143.292969 405.949219 143.847656 405.011719 144.039062 C 400.484375 144.976562 397.191406 149.015625 397.191406 153.648438 C 397.191406 159.0625 401.59375 163.464844 407.003906 163.464844 C 409.101562 163.464844 411.132812 162.808594 412.847656 161.542969 C 413.457031 161.109375 414.167969 160.863281 414.894531 160.863281 Z M 560.492188 146.449219 Z M 560.492188 146.449219 " fill-opacity="1" fill-rule="nonzero"/><path fill="#1d1d1b" d="M 403.554688 143.96875 C 401.890625 143.96875 400.414062 142.753906 400.136719 141.054688 C 399.824219 139.164062 401.125 137.378906 403.015625 137.082031 C 406.191406 136.582031 409.3125 135.746094 412.3125 134.636719 C 415.070312 133.613281 417.738281 132.332031 420.269531 130.820312 C 421.917969 129.832031 424.050781 130.371094 425.023438 132.019531 C 426.011719 133.667969 425.472656 135.800781 423.828125 136.769531 C 420.949219 138.488281 417.878906 139.960938 414.738281 141.140625 C 411.304688 142.425781 407.734375 143.363281 404.125 143.953125 C 403.9375 143.988281 403.761719 144.003906 403.570312 144.003906 Z M 403.554688 143.96875 " fill-opacity="1" fill-rule="nonzero"/><path fill="#1d1d1b" d="M 432.636719 151.722656 C 431.714844 151.722656 430.796875 151.359375 430.121094 150.628906 C 426.652344 146.953125 423.964844 142.84375 422.125 138.367188 C 418.519531 129.574219 419.074219 121.507812 420.167969 116.304688 C 420.566406 114.429688 422.402344 113.234375 424.277344 113.632812 C 426.148438 114.03125 427.347656 115.871094 426.949219 117.742188 C 426.046875 121.992188 425.59375 128.582031 428.527344 135.730469 C 430.035156 139.40625 432.253906 142.808594 435.148438 145.859375 C 436.46875 147.25 436.398438 149.449219 435.011719 150.769531 C 434.335938 151.410156 433.484375 151.722656 432.636719 151.722656 Z M 432.636719 151.722656 " fill-opacity="1" fill-rule="nonzero"/><path fill="#1d1d1b" d="M 462.636719 128.183594 C 457.433594 128.183594 451.675781 126.519531 447.21875 121.820312 C 440.925781 115.191406 439.660156 105.011719 444.082031 96.476562 C 444.964844 94.777344 447.0625 94.101562 448.746094 94.984375 C 450.445312 95.871094 451.121094 97.949219 450.238281 99.652344 C 447.183594 105.546875 448 112.539062 452.25 117.03125 C 456.828125 121.855469 463.574219 121.871094 467.976562 120.414062 C 474.84375 118.140625 479.597656 110.875 479.542969 102.738281 C 479.542969 100.832031 481.070312 99.253906 482.996094 99.253906 L 483.011719 99.253906 C 484.917969 99.253906 486.464844 100.796875 486.480469 102.703125 C 486.550781 113.980469 479.996094 123.746094 470.164062 127.003906 C 467.976562 127.734375 465.375 128.183594 462.636719 128.183594 Z M 462.636719 128.183594 " fill-opacity="1" fill-rule="nonzero"/><path fill="#1d1d1b" d="M 482.351562 87.457031 C 481.296875 87.457031 480.238281 86.972656 479.5625 86.050781 C 478.382812 84.472656 475.050781 80.640625 469.417969 79.410156 C 462.097656 77.777344 456.289062 81.75 455.195312 82.566406 C 453.652344 83.710938 451.484375 83.398438 450.339844 81.855469 C 449.195312 80.308594 449.507812 78.140625 451.050781 76.996094 C 453.183594 75.417969 460.902344 70.40625 470.925781 72.625 C 478.832031 74.378906 483.496094 79.703125 485.128906 81.921875 C 486.273438 83.46875 485.941406 85.636719 484.417969 86.78125 C 483.792969 87.25 483.0625 87.457031 482.351562 87.457031 Z M 482.351562 87.457031 " fill-opacity="1" fill-rule="nonzero"/><path fill="#1d1d1b" d="M 248.191406 400.132812 C 247.570312 400.132812 246.925781 400.132812 246.304688 400.132812 C 233.417969 399.925781 199.1875 399.386719 176.902344 374.167969 C 162.300781 357.636719 160.011719 337.933594 158.347656 323.550781 C 153.386719 280.792969 167.554688 243.640625 180.910156 219.304688 C 170.296875 209.085938 162.335938 197.378906 157.238281 184.472656 C 146.589844 157.570312 146.105469 119.476562 161.46875 112.503906 C 164.902344 110.941406 169.308594 110.820312 172.964844 112.191406 C 175.929688 113.300781 178.167969 115.246094 179.867188 117.5 C 181.1875 113.753906 183.144531 110.457031 185.695312 107.839844 C 188.886719 104.558594 192.632812 102.789062 196.203125 102.910156 C 200.019531 103.015625 203.851562 105.359375 207.007812 109.226562 C 209.710938 101.679688 215.554688 96.980469 221.296875 96.511719 C 226.863281 96.058594 232.847656 99.40625 235.878906 104.664062 C 238.601562 109.382812 237.839844 113.839844 236.9375 119.007812 C 236.609375 120.917969 236.261719 122.910156 236.019531 125.183594 C 235.480469 130.214844 235.636719 135.4375 236.433594 140.742188 C 241.742188 136.738281 250.863281 131.828125 262.515625 133.265625 C 272.992188 134.566406 280.101562 140.429688 283.394531 143.8125 C 284.730469 145.183594 284.714844 147.386719 283.34375 148.722656 C 281.972656 150.058594 279.773438 150.039062 278.4375 148.671875 C 275.78125 145.945312 270.058594 141.210938 261.667969 140.171875 C 247.671875 138.4375 237.824219 148.566406 236.746094 149.710938 C 235.878906 150.648438 234.5625 151.03125 233.332031 150.699219 C 232.101562 150.371094 231.144531 149.398438 230.835938 148.148438 C 228.890625 140.066406 228.320312 132.085938 229.117188 124.4375 C 229.378906 121.921875 229.757812 119.738281 230.105469 117.792969 C 230.9375 112.972656 231.285156 110.542969 229.878906 108.097656 C 228.234375 105.234375 224.710938 103.171875 221.867188 103.398438 C 216.996094 103.796875 211.933594 110.664062 212.433594 119.894531 C 212.523438 121.628906 211.324219 123.171875 209.625 123.484375 C 207.925781 123.796875 206.246094 122.824219 205.6875 121.175781 C 203.246094 113.890625 198.890625 109.886719 196.046875 109.816406 C 194.453125 109.761719 192.476562 110.839844 190.707031 112.644531 C 186.71875 116.753906 184.585938 123.589844 184.984375 130.941406 C 185.085938 132.816406 183.699219 134.429688 181.84375 134.585938 C 179.972656 134.757812 178.324219 133.421875 178.082031 131.566406 C 177.578125 127.628906 175.429688 120.464844 170.574219 118.660156 C 168.320312 117.828125 165.839844 118.125 164.363281 118.785156 C 155.085938 123 153.058594 154.96875 163.722656 181.886719 C 168.753906 194.601562 176.796875 206.085938 187.636719 216.042969 C 188.832031 217.136719 189.109375 218.902344 188.3125 220.308594 C 175.097656 243.675781 160.359375 280.394531 165.265625 322.71875 C 166.914062 336.941406 168.976562 354.636719 182.121094 369.535156 C 202.378906 392.46875 234.390625 392.96875 246.441406 393.160156 C 291.859375 393.835938 324.945312 366.707031 335.835938 357.777344 C 339.320312 354.914062 342.320312 352.191406 345.027344 349.46875 C 351.375 343.03125 355.222656 338.226562 360.078125 332.136719 C 361.746094 330.039062 363.53125 327.800781 365.578125 325.320312 C 370.691406 319.078125 376.171875 312.847656 381.878906 306.8125 C 383.195312 305.425781 385.378906 305.355469 386.785156 306.675781 C 388.171875 307.992188 388.242188 310.179688 386.921875 311.582031 C 381.339844 317.480469 375.964844 323.585938 370.953125 329.710938 C 368.941406 332.171875 367.171875 334.394531 365.507812 336.457031 C 360.511719 342.703125 356.578125 347.644531 349.96875 354.324219 C 347.089844 357.238281 343.917969 360.117188 340.242188 363.117188 C 329.019531 372.328125 295.171875 400.082031 248.226562 400.082031 Z M 248.191406 400.132812 " fill-opacity="1" fill-rule="nonzero"/><path fill="#1d1d1b" d="M 245.4375 339.285156 C 234.355469 339.285156 228.320312 335.605469 226.066406 333.839844 C 211.933594 322.769531 214.707031 299.5625 217.378906 277.117188 C 219.667969 257.984375 224.710938 238.992188 232.378906 220.671875 C 232.984375 219.214844 234.492188 218.367188 236.054688 218.574219 C 247.96875 220.203125 259.515625 218.660156 269.488281 214.132812 C 283.515625 207.75 290.730469 201.019531 290.921875 194.167969 C 291.042969 190.179688 288.960938 184.871094 285.425781 183.257812 C 284.367188 182.773438 282.632812 182.652344 280.535156 182.910156 C 276.027344 183.464844 273.582031 185.269531 270.199219 187.769531 C 267.40625 189.816406 264.25 192.140625 259.414062 194.167969 C 254.347656 196.269531 247.429688 199.148438 240.164062 196.164062 C 234.734375 193.941406 228.839844 188.132812 228.71875 180.621094 C 228.648438 176.5625 230.332031 172.660156 233.609375 169.3125 C 238.046875 164.765625 245.054688 161.835938 251.4375 161.800781 L 251.503906 161.800781 C 255.945312 161.800781 260.4375 163.222656 264.460938 165.929688 C 266.054688 167.003906 266.472656 169.15625 265.394531 170.75 C 264.320312 172.347656 262.171875 172.765625 260.574219 171.6875 C 258.5625 170.335938 255.371094 168.738281 251.488281 168.738281 L 251.4375 168.738281 C 246.875 168.738281 241.691406 170.925781 238.535156 174.152344 C 237.179688 175.539062 235.585938 177.742188 235.636719 180.484375 C 235.707031 184.628906 239.367188 188.339844 242.78125 189.726562 C 247.414062 191.617188 252.371094 189.554688 256.742188 187.734375 C 260.816406 186.050781 263.488281 184.074219 266.070312 182.164062 C 269.816406 179.40625 273.355469 176.804688 279.667969 176.023438 C 283.117188 175.589844 286.015625 175.902344 288.285156 176.945312 C 294.804688 179.910156 298.03125 187.960938 297.839844 194.378906 C 297.425781 209.050781 278.539062 217.636719 272.347656 220.464844 C 261.945312 225.199219 250.03125 227.023438 237.769531 225.789062 C 230.902344 242.773438 226.359375 260.308594 224.246094 277.949219 C 221.800781 298.488281 219.25 319.734375 230.3125 328.390625 C 231.839844 329.589844 237.789062 333.371094 250.308594 332.105469 C 272.957031 329.796875 288.476562 313.683594 306.441406 295 L 309.808594 291.515625 C 376.085938 222.945312 406.917969 207.507812 428.351562 201.4375 C 436.085938 199.25 444.0625 197.707031 452.074219 196.859375 C 453.984375 196.648438 455.683594 198.035156 455.890625 199.945312 C 456.097656 201.851562 454.710938 203.554688 452.804688 203.761719 C 445.191406 204.578125 437.59375 206.035156 430.242188 208.113281 C 409.710938 213.925781 379.933594 228.964844 314.800781 296.335938 L 311.4375 299.824219 C 293.296875 318.660156 276.183594 336.457031 251.003906 339.007812 C 249.007812 339.214844 247.152344 339.300781 245.417969 339.300781 Z M 245.4375 339.285156 " fill-opacity="1" fill-rule="nonzero"/><path fill="#1d1d1b" d="M 333.980469 235.019531 C 327.148438 235.019531 321.496094 234.464844 315.199219 231.339844 C 307.066406 227.300781 301.933594 220.96875 298.847656 215.660156 C 295.136719 216.421875 291.371094 216.839844 287.609375 216.945312 C 284.660156 217.011719 281.695312 216.890625 278.78125 216.5625 C 276.875 216.355469 275.503906 214.636719 275.730469 212.730469 C 275.9375 210.820312 277.671875 209.449219 279.5625 209.675781 C 282.183594 209.972656 284.835938 210.09375 287.4375 210.023438 C 291.597656 209.917969 295.761719 209.347656 299.800781 208.359375 C 301.363281 207.957031 302.992188 208.722656 303.71875 210.160156 C 306.113281 214.878906 310.585938 221.332031 318.269531 225.164062 C 324.652344 228.339844 330.199219 228.234375 339.375 228.046875 C 346.207031 227.90625 352.65625 227.785156 359.421875 223.917969 C 362.332031 222.25 365.265625 219.769531 367.882812 216.734375 C 378.601562 204.367188 378.617188 187.648438 378.652344 154.324219 C 378.652344 153.042969 378.652344 150.351562 377.160156 147.734375 C 375.324219 144.488281 371.976562 142.808594 369.253906 141.699219 C 349.308594 133.578125 327.71875 137.828125 327.355469 137.898438 C 317.871094 139.859375 308.730469 143.535156 300.21875 148.808594 C 299.382812 149.328125 298.378906 149.46875 297.425781 149.191406 C 295.292969 148.582031 284.226562 145.84375 275.316406 152.226562 C 265.636719 159.148438 262.5 173.371094 267.875 186.050781 C 268.621094 187.820312 267.804688 189.851562 266.039062 190.59375 C 264.269531 191.339844 262.238281 190.527344 261.492188 188.757812 C 254.871094 173.109375 258.996094 155.382812 271.292969 146.589844 C 281.316406 139.425781 292.828125 140.96875 297.839844 142.148438 C 306.683594 136.859375 316.136719 133.144531 325.953125 131.117188 L 325.953125 131.21875 C 331.449219 129.886719 352.796875 127.527344 371.871094 135.296875 C 375.324219 136.703125 380.265625 139.164062 383.195312 144.316406 C 385.589844 148.53125 385.589844 152.609375 385.589844 154.34375 C 385.554688 189.382812 385.535156 206.96875 373.121094 221.296875 C 369.980469 224.90625 366.425781 227.90625 362.855469 229.953125 C 354.566406 234.6875 346.570312 234.84375 339.511719 234.984375 C 337.554688 235.019531 335.714844 235.054688 333.945312 235.054688 Z M 333.980469 235.019531 " fill-opacity="1" fill-rule="nonzero"/><path fill="#1d1d1b" d="M 295.796875 203.308594 C 294.703125 203.308594 293.609375 203.222656 292.535156 203.050781 C 290.644531 202.753906 289.34375 200.96875 289.65625 199.078125 C 289.96875 197.1875 291.738281 195.886719 293.628906 196.199219 C 294.285156 196.300781 294.945312 196.355469 295.621094 196.371094 C 294.839844 191.152344 294.390625 185.878906 294.25 180.621094 C 294.113281 174.621094 294.390625 168.566406 295.082031 162.597656 C 289.863281 163.15625 285.164062 165.980469 282.527344 170.371094 C 280.847656 173.144531 280.1875 176.300781 280.515625 179.738281 C 280.707031 181.644531 279.320312 183.34375 277.414062 183.535156 C 275.503906 183.710938 273.804688 182.339844 273.617188 180.429688 C 273.113281 175.488281 274.117188 170.890625 276.582031 166.796875 C 281.195312 159.128906 290.125 154.777344 299.367188 155.679688 C 300.304688 155.765625 301.171875 156.25 301.761719 156.996094 C 302.351562 157.742188 302.59375 158.695312 302.453125 159.652344 C 301.429688 166.519531 300.996094 173.527344 301.171875 180.464844 C 301.328125 186.605469 301.949219 192.78125 303.042969 198.835938 C 303.375 200.671875 302.195312 202.441406 300.355469 202.839844 C 298.828125 203.171875 297.304688 203.328125 295.777344 203.328125 Z M 295.796875 203.308594 " fill-opacity="1" fill-rule="nonzero"/><path fill="#1d1d1b" d="M 370.554688 151.21875 C 371.351562 157.464844 355.257812 166.796875 339.789062 167.039062 C 325.621094 167.246094 310.066406 159.875 310.34375 153.753906 C 310.621094 147.421875 327.824219 142.6875 340.570312 142.289062 C 352.640625 141.90625 369.789062 145.078125 370.570312 151.238281 Z M 370.554688 151.21875 " fill-opacity="1" fill-rule="nonzero"/><path fill="#1d1d1b" d="M 499.675781 553.542969 C 497.769531 553.542969 496.210938 551.996094 496.210938 550.089844 C 496.210938 548.164062 497.769531 546.601562 499.675781 546.601562 C 501.585938 546.601562 503.144531 548.164062 503.144531 550.074219 C 503.144531 551.980469 501.585938 553.542969 499.675781 553.542969 Z M 499.675781 553.542969 " fill-opacity="1" fill-rule="nonzero"/><path fill="#1d1d1b" d="M 606.828125 729.550781 C 606.136719 729.550781 605.441406 729.515625 604.765625 729.464844 C 601.195312 729.167969 589.054688 727.484375 583.054688 718.308594 C 574.4375 705.164062 581.617188 683.238281 600.101562 664.15625 C 586.800781 664.050781 573.238281 664.050781 559.644531 664.15625 L 559.609375 664.15625 C 557.703125 664.15625 556.15625 662.613281 556.140625 660.722656 C 556.140625 658.8125 557.667969 657.234375 559.574219 657.21875 C 576.136719 657.097656 592.679688 657.113281 608.71875 657.289062 C 610.160156 657.289062 611.441406 658.207031 611.929688 659.542969 C 612.429688 660.894531 612.050781 662.40625 610.972656 663.359375 C 588.882812 682.804688 582.378906 704.625 588.847656 714.496094 C 593.234375 721.207031 603.363281 722.371094 605.339844 722.527344 C 619.871094 723.738281 637.765625 707.054688 650.199219 692.847656 C 673.941406 665.71875 698.234375 629.535156 688.578125 616.765625 C 685.265625 612.378906 678.222656 612.066406 670.074219 611.703125 L 668.753906 611.648438 C 652.4375 610.90625 609.671875 609.65625 575.320312 608.667969 L 568.417969 608.457031 C 566.511719 608.40625 565.003906 606.8125 565.054688 604.886719 C 565.105469 602.960938 566.753906 601.46875 568.625 601.519531 L 575.527344 601.726562 C 609.917969 602.734375 652.699219 603.964844 669.085938 604.730469 L 670.402344 604.78125 C 679.890625 605.199219 688.855469 605.597656 694.144531 612.585938 C 709.039062 632.257812 672.050781 678.46875 655.453125 697.425781 C 636.796875 718.742188 620.460938 729.535156 606.882812 729.535156 Z M 606.828125 729.550781 " fill-opacity="1" fill-rule="nonzero"/><g clip-path="url(#c251c6af1b)"><path fill="#1d1d1b" d="M 128.449219 749.828125 C 109.878906 749.828125 86.519531 732.707031 58.6875 710.710938 C 20.429688 680.511719 17.398438 666.878906 18.4375 659.246094 C 19.738281 649.722656 27.144531 640.289062 36.4375 636.296875 C 50.898438 630.105469 66.074219 638.726562 78.265625 645.632812 C 84.785156 649.324219 90.855469 653.800781 96.351562 658.953125 C 105.925781 650.3125 114.578125 642.59375 122.746094 635.414062 C 124.183594 634.148438 126.371094 634.285156 127.636719 635.726562 C 128.902344 637.167969 128.761719 639.351562 127.324219 640.617188 C 118.496094 648.355469 109.097656 656.75 98.589844 666.253906 C 97.21875 667.503906 95.121094 667.433594 93.804688 666.132812 C 88.132812 660.460938 81.75 655.585938 74.832031 651.648438 C 63.976562 645.492188 50.46875 637.808594 39.160156 642.648438 C 33.300781 645.164062 26.449219 651.703125 25.304688 660.148438 C 23.742188 671.582031 44.933594 690.972656 62.988281 705.230469 C 92.503906 728.542969 118.289062 747.382812 134.695312 741.867188 C 139.828125 740.148438 141.976562 737.269531 146.710938 730.972656 C 149.574219 727.15625 153.144531 722.402344 158.609375 716.28125 C 164 710.226562 169.550781 704.710938 175.550781 699.421875 C 176.988281 698.152344 179.175781 698.292969 180.441406 699.734375 C 181.707031 701.171875 181.566406 703.359375 180.128906 704.625 C 174.335938 709.742188 168.976562 715.066406 163.773438 720.894531 C 158.503906 726.808594 155.035156 731.421875 152.261719 735.136719 C 147.164062 741.933594 144.09375 746.027344 136.914062 748.441406 C 134.226562 749.34375 131.398438 749.777344 128.46875 749.777344 Z M 128.449219 749.828125 " fill-opacity="1" fill-rule="nonzero"/></g><path fill="#1d1d1b" d="M 335.609375 432.363281 C 335.230469 432.363281 334.847656 432.292969 334.464844 432.171875 C 332.664062 431.546875 331.707031 429.554688 332.332031 427.75 C 353.054688 368.511719 378.445312 310.074219 407.835938 254.0625 C 408.722656 252.363281 410.820312 251.722656 412.519531 252.605469 C 414.21875 253.492188 414.859375 255.589844 413.976562 257.289062 C 384.757812 313.003906 359.488281 371.132812 338.886719 430.039062 C 338.386719 431.460938 337.050781 432.363281 335.609375 432.363281 Z M 335.609375 432.363281 " fill-opacity="1" fill-rule="nonzero"/><path fill="#1d1d1b" d="M 552.601562 337.6875 C 552.324219 337.6875 552.03125 337.652344 551.753906 337.585938 C 549.898438 337.117188 548.769531 335.226562 549.238281 333.371094 L 571.382812 246.277344 C 571.851562 244.421875 573.742188 243.292969 575.597656 243.761719 C 577.453125 244.230469 578.582031 246.121094 578.113281 247.976562 L 555.96875 335.070312 C 555.570312 336.648438 554.164062 337.6875 552.601562 337.6875 Z M 552.601562 337.6875 " fill-opacity="1" fill-rule="nonzero"/><path fill="#1d1d1b" d="M 633.066406 506.449219 C 628.175781 506.449219 623.148438 504.710938 618.066406 501.296875 C 614.164062 503.289062 605.582031 506.570312 596.511719 502.5625 C 591.015625 500.132812 587.667969 496.09375 585.777344 492.953125 C 578.214844 496.144531 570.238281 495.449219 565.070312 490.921875 C 561.152344 487.472656 559.019531 481.765625 559.644531 476.402344 C 560.582031 468.40625 567.03125 464.246094 573.882812 459.820312 C 577.402344 457.550781 581.058594 455.191406 584.546875 452.066406 C 591.136719 446.1875 596.214844 438.261719 599.71875 428.476562 C 586.921875 433.855469 574.9375 431.355469 569.546875 424.75 C 565.503906 419.804688 565.175781 413.109375 566.199219 408.511719 C 568.609375 397.722656 579.308594 392.882812 583.871094 390.820312 C 598.816406 384.070312 614.355469 388.183594 622.539062 391.375 C 630.933594 376.230469 642.363281 348.269531 636.550781 315.3125 L 636.519531 315.140625 C 634.28125 302.40625 627.429688 263.65625 598.039062 252.867188 C 584.128906 247.769531 570.152344 250.699219 560.859375 254.046875 C 559.054688 254.6875 557.058594 253.769531 556.417969 251.964844 C 555.757812 250.160156 556.695312 248.167969 558.5 247.523438 C 568.871094 243.777344 584.5625 240.535156 600.429688 246.34375 C 633.585938 258.503906 640.941406 300.222656 643.351562 313.925781 L 643.386719 314.097656 C 649.941406 351.253906 635.945312 382.300781 627.015625 397.496094 C 626.113281 399.023438 624.207031 399.632812 622.59375 398.902344 C 616.609375 396.195312 601.105469 390.628906 586.695312 397.132812 C 582.464844 399.042969 574.59375 402.597656 572.945312 410.003906 C 572.25 413.109375 572.597656 417.515625 574.902344 420.34375 C 579.292969 425.738281 591.480469 426.585938 603.5 418.539062 C 604.695312 417.742188 606.257812 417.757812 607.417969 418.589844 C 608.597656 419.421875 609.136719 420.878906 608.789062 422.269531 C 605.078125 437.132812 598.472656 448.894531 589.140625 457.238281 C 585.238281 460.722656 581.199219 463.324219 577.609375 465.632812 C 570.882812 469.984375 567.03125 472.65625 566.511719 477.183594 C 566.148438 480.308594 567.394531 483.722656 569.632812 485.703125 C 573.222656 488.859375 579.757812 488.703125 585.5 485.320312 C 586.367188 484.816406 587.40625 484.695312 588.359375 485.023438 C 589.316406 485.335938 590.078125 486.066406 590.460938 486.984375 C 591.273438 488.945312 593.753906 493.785156 599.285156 496.214844 C 607.851562 499.996094 615.949219 494.546875 616.296875 494.304688 C 617.527344 493.457031 619.160156 493.488281 620.355469 494.390625 C 625.175781 498.035156 629.753906 499.75 633.96875 499.457031 C 652.140625 498.242188 669.398438 462.144531 675.917969 411.6875 C 675.96875 411.304688 676.074219 410.941406 676.246094 410.59375 C 714.136719 334.0625 710.980469 252.328125 668.546875 211.808594 C 656.042969 199.859375 622.417969 172.886719 580.347656 180.378906 C 557.476562 184.457031 540.792969 197.273438 530.839844 207.300781 C 529.488281 208.652344 527.300781 208.671875 525.933594 207.316406 C 524.578125 205.964844 524.5625 203.777344 525.914062 202.40625 C 536.578125 191.652344 554.457031 177.933594 579.136719 173.527344 C 624.34375 165.480469 660.085938 194.082031 673.351562 206.761719 C 695.027344 227.457031 707.878906 259.234375 709.558594 296.214844 C 711.257812 333.628906 701.980469 374.046875 682.734375 413.125 C 675.5 468.304688 656.566406 504.867188 634.4375 506.359375 C 633.984375 506.394531 633.519531 506.414062 633.050781 506.414062 Z M 633.066406 506.449219 " fill-opacity="1" fill-rule="nonzero"/><path fill="#1d1d1b" d="M 560.371094 637.042969 C 559.296875 645.820312 559.210938 653.785156 559.609375 660.703125 C 558.847656 660.84375 557.648438 661.050781 556.175781 661.277344 C 514.710938 668.078125 455.214844 677.824219 417.738281 647.277344 C 406.433594 638.066406 400.726562 628.128906 396.011719 619.871094 C 374.457031 582.195312 379.8125 543.464844 382.570312 529.082031 C 277.65625 624.382812 231.546875 662.507812 210.199219 677.894531 C 200.589844 684.816406 189.804688 691.582031 177.839844 702.074219 C 173 689.324219 164.886719 673.835938 151.167969 659.300781 C 142.359375 649.96875 133.21875 643.082031 125.035156 638.050781 C 144.058594 621.292969 163.792969 604.453125 184.21875 587.539062 C 229.722656 549.882812 274.378906 515.519531 317.644531 484.210938 C 322.171875 469.066406 327.078125 453.714844 332.402344 438.15625 C 333.460938 435.050781 334.535156 431.964844 335.59375 428.894531 L 335.609375 428.894531 C 349.585938 434.949219 368.765625 441 392.023438 442.285156 C 407.265625 443.136719 420.929688 441.746094 432.515625 439.492188 C 413.125 496.300781 420.980469 516.074219 424.78125 523.777344 C 426.601562 527.4375 429.304688 532.8125 434.785156 538.261719 C 449.855469 553.230469 469.121094 551.617188 499.675781 550.089844 C 497.457031 562.785156 496.226562 573.957031 496.953125 580.894531 C 497.265625 583.949219 498.03125 591.113281 503.300781 596.558594 C 509.527344 602.960938 518.632812 603.464844 522.777344 603.636719 C 528.722656 603.878906 546.777344 604.398438 568.503906 605.023438 C 565.125 613.664062 561.914062 624.453125 560.371094 637.042969 Z M 560.371094 637.042969 " fill-opacity="1" fill-rule="nonzero"/><path fill="#1d1d1b" d="M 177.839844 705.527344 C 177.5625 705.527344 177.285156 705.492188 177.007812 705.421875 C 175.898438 705.144531 175.011719 704.347656 174.597656 703.289062 C 168.648438 687.609375 159.90625 673.609375 148.652344 661.660156 C 141.128906 653.679688 132.578125 646.722656 123.230469 640.980469 C 122.292969 640.410156 121.6875 639.421875 121.582031 638.328125 C 121.480469 637.234375 121.914062 636.160156 122.746094 635.429688 C 141.71875 618.726562 161.660156 601.710938 182.019531 584.851562 C 225.042969 549.238281 269.679688 514.667969 314.664062 482.078125 C 319.171875 467.070312 324.027344 451.910156 329.125 437.027344 C 329.835938 434.949219 330.546875 432.882812 331.257812 430.820312 L 332.316406 427.75 C 332.800781 426.34375 334.121094 425.40625 335.59375 425.40625 C 336.0625 425.40625 336.546875 425.511719 336.980469 425.683594 C 354.652344 433.335938 373.222656 437.738281 392.214844 438.796875 C 405.410156 439.542969 418.746094 438.605469 431.855469 436.058594 C 433.070312 435.832031 434.316406 436.25 435.132812 437.183594 C 435.949219 438.121094 436.207031 439.421875 435.792969 440.585938 C 416.09375 498.292969 424.972656 516.300781 427.882812 522.214844 C 429.550781 525.578125 432.082031 530.664062 437.230469 535.777344 C 450.636719 549.082031 467.699219 548.214844 496 546.777344 L 499.503906 546.601562 C 500.542969 546.550781 501.585938 546.984375 502.277344 547.765625 C 502.972656 548.5625 503.285156 549.621094 503.09375 550.660156 C 500.683594 564.46875 499.78125 574.511719 500.40625 580.515625 C 500.683594 583.21875 501.324219 589.515625 505.796875 594.128906 C 511.175781 599.664062 519.410156 600.011719 522.933594 600.148438 C 528.914062 600.394531 547.3125 600.929688 568.609375 601.539062 C 569.738281 601.570312 570.777344 602.144531 571.402344 603.097656 C 572.027344 604.035156 572.148438 605.230469 571.730469 606.273438 C 567.777344 616.386719 565.105469 626.878906 563.804688 637.445312 C 562.871094 645.074219 562.625 652.828125 563.058594 660.480469 C 563.164062 662.230469 561.933594 663.792969 560.199219 664.105469 C 559.4375 664.242188 558.222656 664.449219 556.730469 664.695312 C 515.910156 671.390625 454.242188 681.484375 415.535156 649.96875 C 403.691406 640.324219 397.761719 629.933594 392.992188 621.589844 C 375.425781 590.871094 375.0625 558.96875 377.613281 538.242188 C 294.632812 613.472656 239.003906 661.382812 212.210938 680.6875 C 209.78125 682.4375 207.285156 684.171875 204.699219 685.976562 C 196.949219 691.371094 188.921875 696.941406 180.109375 704.675781 C 179.46875 705.230469 178.652344 705.542969 177.820312 705.542969 Z M 130.792969 637.601562 C 139.132812 643.132812 146.816406 649.621094 153.699219 656.90625 C 164.503906 668.355469 173.085938 681.570312 179.277344 696.28125 C 186.996094 689.847656 194.261719 684.796875 200.765625 680.269531 C 203.3125 678.5 205.777344 676.785156 208.1875 675.050781 C 235.535156 655.34375 293.4375 605.355469 380.246094 526.480469 C 381.355469 525.476562 382.96875 525.285156 384.269531 526.03125 C 385.570312 526.757812 386.265625 528.25 385.988281 529.707031 C 382.46875 548.058594 379.484375 583.949219 399.027344 618.121094 C 403.746094 626.375 409.101562 635.726562 419.941406 644.554688 C 456.21875 674.113281 513.671875 664.695312 555.621094 657.824219 C 555.757812 657.808594 555.878906 657.789062 556.019531 657.753906 C 555.777344 650.695312 556.089844 643.585938 556.9375 636.578125 C 558.117188 627.019531 560.335938 617.53125 563.582031 608.300781 C 544.347656 607.746094 528.222656 607.277344 522.636719 607.054688 C 518.667969 606.878906 508.121094 606.445312 500.820312 598.9375 C 494.683594 592.585938 493.832031 584.3125 493.503906 581.207031 C 492.878906 575.257812 493.574219 566.011719 495.550781 553.730469 C 466.832031 555.1875 447.773438 556.003906 432.359375 540.6875 C 426.410156 534.773438 423.460938 528.839844 421.691406 525.285156 C 418.554688 518.917969 409.226562 500.011719 427.398438 443.878906 C 415.605469 445.753906 403.675781 446.378906 391.847656 445.703125 C 373.277344 444.679688 355.085938 440.566406 337.691406 433.472656 C 337.03125 435.382812 336.375 437.304688 335.714844 439.230469 C 330.511719 454.425781 325.570312 469.863281 320.992188 485.164062 C 320.765625 485.890625 320.316406 486.535156 319.707031 486.984375 C 274.515625 519.699219 229.671875 554.410156 186.457031 590.175781 C 167.382812 605.960938 148.6875 621.902344 130.808594 637.582031 Z M 560.371094 637.042969 Z M 560.371094 637.042969 " fill-opacity="1" fill-rule="nonzero"/><path fill="#1d1d1b" d="M 432.515625 442.960938 C 432.148438 442.960938 431.769531 442.910156 431.386719 442.769531 C 429.566406 442.144531 428.613281 440.1875 429.21875 438.363281 C 434.472656 422.925781 441.460938 405.683594 449.941406 387.089844 C 458.59375 368.132812 468.273438 349.050781 478.710938 330.367188 C 483.53125 303.414062 491.734375 277.203125 503.078125 252.449219 C 512.007812 232.988281 522.949219 214.308594 535.589844 196.945312 C 536.023438 196.355469 536.632812 195.902344 537.34375 195.679688 L 581.335938 181.664062 C 582.777344 181.210938 584.335938 181.730469 585.222656 182.964844 C 586.089844 184.195312 586.070312 185.84375 585.171875 187.058594 C 573.914062 202.0625 563.734375 218.003906 554.890625 234.445312 C 538.886719 264.246094 526.9375 296.25 519.359375 329.65625 C 541.972656 330.855469 564.914062 332.710938 587.632812 335.207031 C 605.5625 337.203125 623.667969 339.613281 641.441406 342.371094 C 643.332031 342.667969 644.632812 344.4375 644.339844 346.328125 C 644.042969 348.21875 642.273438 349.519531 640.386719 349.222656 C 622.695312 346.484375 604.695312 344.070312 586.886719 342.09375 C 562.921875 339.476562 538.710938 337.53125 514.921875 336.371094 C 513.898438 336.320312 512.960938 335.832031 512.335938 335.019531 C 511.710938 334.203125 511.488281 333.160156 511.695312 332.171875 C 519.34375 296.699219 531.828125 262.71875 548.769531 231.167969 C 556.105469 217.535156 564.34375 204.230469 573.34375 191.515625 L 540.535156 201.972656 C 528.445312 218.714844 517.972656 236.683594 509.371094 255.382812 C 498.1875 279.769531 490.140625 305.617188 485.421875 332.191406 C 485.351562 332.570312 485.230469 332.9375 485.042969 333.28125 C 474.585938 351.964844 464.890625 371.046875 456.238281 390.003906 C 447.84375 408.375 440.941406 425.40625 435.757812 440.636719 C 435.273438 442.078125 433.917969 442.980469 432.480469 442.980469 Z M 432.515625 442.960938 " fill-opacity="1" fill-rule="nonzero"/><g clip-path="url(#15ed1e82da)"><path fill="#1d1d1b" d="M 499.675781 553.558594 C 497.855469 553.558594 496.3125 552.121094 496.210938 550.28125 C 496.105469 548.371094 497.578125 546.722656 499.488281 546.621094 C 510.132812 546.046875 520.851562 545.734375 531.324219 545.699219 C 541.089844 545.648438 550.695312 545.875 559.972656 546.066406 C 579.8125 546.480469 600.328125 546.933594 624.050781 545.113281 C 630.207031 544.644531 636.882812 543.933594 644.929688 540.894531 C 645.066406 540.84375 659.929688 535.101562 673.144531 521.085938 C 686.445312 506.984375 708.101562 457.792969 724.230469 383.101562 C 725.757812 376.007812 721.492188 368.964844 714.519531 367.039062 L 702.347656 363.691406 C 700.507812 363.1875 699.414062 361.28125 699.917969 359.421875 C 700.421875 357.585938 702.328125 356.492188 704.183594 356.996094 L 716.359375 360.34375 C 726.882812 363.238281 733.316406 373.871094 731.011719 384.558594 C 714.519531 460.949219 692.601562 510.558594 678.1875 525.839844 C 663.832031 541.070312 648.03125 547.125 647.375 547.367188 C 638.460938 550.714844 631.230469 551.496094 624.570312 552.015625 C 600.5 553.855469 579.8125 553.421875 559.816406 552.988281 C 550.574219 552.796875 541.035156 552.570312 531.34375 552.621094 C 520.972656 552.65625 510.378906 552.96875 499.851562 553.542969 C 499.78125 553.542969 499.730469 553.542969 499.660156 553.542969 Z M 499.675781 553.558594 " fill-opacity="1" fill-rule="nonzero"/></g><path fill="#1d1d1b" d="M 587.285156 491.808594 C 586.089844 491.808594 584.910156 491.183594 584.269531 490.074219 C 583.316406 488.40625 583.886719 486.292969 585.550781 485.335938 C 593.164062 480.964844 599.980469 475.433594 605.804688 468.910156 C 610.714844 463.410156 614.859375 457.273438 618.117188 450.644531 C 618.96875 448.929688 621.050781 448.21875 622.765625 449.066406 C 624.484375 449.917969 625.195312 452 624.34375 453.714844 C 620.804688 460.914062 616.296875 467.574219 610.972656 473.542969 C 604.660156 480.621094 597.273438 486.621094 589.019531 491.355469 C 588.480469 491.667969 587.875 491.824219 587.285156 491.824219 Z M 587.285156 491.808594 " fill-opacity="1" fill-rule="nonzero"/><path fill="#1d1d1b" d="M 618.464844 500.308594 C 617.304688 500.308594 616.175781 499.734375 615.515625 498.675781 C 614.496094 497.046875 614.996094 494.914062 616.609375 493.890625 C 623.5625 489.535156 629.597656 484.019531 634.542969 477.515625 C 638.738281 471.980469 642.050781 465.839844 644.375 459.265625 C 645.015625 457.460938 646.992188 456.507812 648.796875 457.148438 C 650.597656 457.792969 651.554688 459.769531 650.910156 461.574219 C 648.34375 468.824219 644.703125 475.605469 640.074219 481.710938 C 634.628906 488.894531 627.96875 494.980469 620.304688 499.785156 C 619.730469 500.152344 619.089844 500.324219 618.464844 500.324219 Z M 618.464844 500.308594 " fill-opacity="1" fill-rule="nonzero"/><path fill="#1d1d1b" d="M 187.914062 171.167969 C 186.578125 171.167969 185.296875 170.386719 184.722656 169.070312 C 182.210938 163.242188 180.355469 157.136719 179.191406 150.90625 C 177.839844 143.691406 177.441406 136.320312 177.976562 128.984375 C 178.117188 127.074219 179.796875 125.667969 181.6875 125.773438 C 183.597656 125.914062 185.035156 127.578125 184.898438 129.484375 C 184.394531 136.234375 184.777344 143 186.007812 149.625 C 187.082031 155.347656 188.78125 160.953125 191.085938 166.3125 C 191.851562 168.0625 191.035156 170.109375 189.285156 170.875 C 188.832031 171.0625 188.367188 171.152344 187.914062 171.152344 Z M 187.914062 171.167969 " fill-opacity="1" fill-rule="nonzero"/><path fill="#1d1d1b" d="M 215.417969 158.105469 C 214.082031 158.105469 212.800781 157.324219 212.226562 156.007812 C 209.710938 150.179688 207.855469 144.074219 206.695312 137.847656 C 205.34375 130.628906 204.945312 123.257812 205.480469 115.921875 C 205.621094 114.011719 207.285156 112.589844 209.191406 112.710938 C 211.101562 112.851562 212.539062 114.515625 212.402344 116.425781 C 211.898438 123.15625 212.277344 129.9375 213.511719 136.5625 C 214.566406 142.289062 216.285156 147.890625 218.589844 153.25 C 219.355469 155 218.539062 157.046875 216.789062 157.8125 C 216.335938 158.003906 215.867188 158.089844 215.417969 158.089844 Z M 215.417969 158.105469 " fill-opacity="1" fill-rule="nonzero"/><path fill="#1d1d1b" d="M 350.886719 351.566406 C 349.882812 351.566406 348.894531 351.132812 348.21875 350.316406 C 339.441406 339.71875 332.386719 327.871094 327.269531 315.140625 C 323.265625 305.183594 320.488281 294.742188 318.996094 284.089844 C 318.738281 282.199219 320.054688 280.449219 321.945312 280.167969 C 323.851562 279.910156 325.585938 281.226562 325.863281 283.117188 C 327.285156 293.214844 329.921875 303.117188 333.703125 312.539062 C 338.558594 324.609375 345.234375 335.832031 353.558594 345.875 C 354.773438 347.351562 354.582031 349.535156 353.109375 350.769531 C 352.464844 351.304688 351.667969 351.566406 350.90625 351.566406 Z M 350.886719 351.566406 " fill-opacity="1" fill-rule="nonzero"/><path fill="#1d1d1b" d="M 638.0625 308.289062 C 637.195312 308.289062 636.328125 307.957031 635.652344 307.300781 C 634.28125 305.964844 634.246094 303.761719 635.582031 302.390625 C 644.375 293.335938 654.378906 285.597656 665.320312 279.390625 C 676.734375 272.917969 689.011719 268.203125 701.824219 265.320312 C 703.699219 264.90625 705.554688 266.085938 705.96875 267.957031 C 706.386719 269.832031 705.207031 271.6875 703.335938 272.105469 C 691.179688 274.828125 679.542969 279.300781 668.738281 285.425781 C 658.367188 291.304688 648.882812 298.644531 640.558594 307.210938 C 639.882812 307.90625 638.980469 308.269531 638.078125 308.269531 Z M 638.0625 308.289062 " fill-opacity="1" fill-rule="nonzero"/><path fill="#1d1d1b" d="M 588.328125 456.769531 C 587.980469 456.769531 587.632812 456.714844 587.285156 456.613281 C 572.546875 452.015625 544.921875 439.910156 525.5 410.542969 C 510.984375 388.582031 507.308594 366.378906 506.769531 351.617188 C 506.699219 349.710938 508.191406 348.097656 510.117188 348.027344 C 512.007812 347.957031 513.636719 349.449219 513.707031 351.375 C 514.210938 365.25 517.660156 386.101562 531.289062 406.707031 C 549.535156 434.289062 575.511719 445.667969 589.367188 449.988281 C 591.1875 450.558594 592.210938 452.5 591.636719 454.324219 C 591.171875 455.816406 589.800781 456.75 588.328125 456.75 Z M 588.328125 456.769531 " fill-opacity="1" fill-rule="nonzero"/><path fill="#1d1d1b" d="M 675.03125 440.742188 C 673.921875 440.742188 672.832031 440.203125 672.15625 439.214844 C 671.078125 437.617188 671.496094 435.46875 673.089844 434.390625 C 678.101562 431.011719 682.820312 427.175781 687.121094 422.960938 C 694.578125 415.675781 700.855469 407.246094 705.78125 397.914062 C 706.679688 396.214844 708.78125 395.570312 710.460938 396.472656 C 712.160156 397.375 712.800781 399.476562 711.902344 401.15625 C 706.628906 411.132812 699.917969 420.132812 691.957031 427.921875 C 687.34375 432.433594 682.300781 436.542969 676.941406 440.152344 C 676.351562 440.550781 675.675781 440.742188 675 440.742188 Z M 675.03125 440.742188 " fill-opacity="1" fill-rule="nonzero"/><path fill="#1d1d1b" d="M 608.078125 663.082031 C 607.125 663.082031 606.1875 662.699219 605.496094 661.9375 C 604.210938 660.515625 604.332031 658.328125 605.753906 657.042969 C 608.960938 654.148438 612.257812 651.25 615.570312 648.421875 C 619.074219 645.421875 622.679688 642.421875 626.269531 639.507812 C 627.761719 638.3125 629.945312 638.535156 631.140625 640.011719 C 632.355469 641.503906 632.113281 643.6875 630.640625 644.886719 C 627.101562 647.746094 623.546875 650.714844 620.078125 653.679688 C 616.816406 656.472656 613.558594 659.335938 610.402344 662.179688 C 609.742188 662.769531 608.910156 663.0625 608.078125 663.0625 Z M 608.078125 663.082031 " fill-opacity="1" fill-rule="nonzero"/></svg>